<svg width="1444" height="757" viewBox="0 0 1444 757" fill="none" xmlns="http://www.w3.org/2000/svg">
<g style="mix-blend-mode:multiply" opacity="0.3">
<path d="M921 1V346.5L1017 442.5V755.5H1138H1289.5V714H1441" stroke="#2FB2FF" stroke-width="2" stroke-linecap="round"/>
</g>
<g style="mix-blend-mode:multiply" opacity="0.3">
<path d="M1 102C0.447715 102 2.41411e-08 101.552 0 101C-2.41411e-08 100.448 0.447715 100 1 100L1 102ZM286.5 101L286.5 100L286.871 100L287.152 100.242L286.5 101ZM572.5 347L572.5 348L572.129 348L571.848 347.758L572.5 347ZM1085 346L1086 346L1086 348L1085 348L1085 346ZM1 100L286.5 100L286.5 102L1 102L1 100ZM287.152 100.242L573.152 346.242L571.848 347.758L285.848 101.758L287.152 100.242ZM572.5 346L1085 346L1085 348L572.5 348L572.5 346Z" fill="#2FB2FF"/>
</g>
<g style="mix-blend-mode:multiply" opacity="0.3">
<path d="M1085 502C1085.55 502 1086 501.552 1086 501C1086 500.448 1085.55 500 1085 500L1085 502ZM799.5 501L799.5 500L799.129 500L798.848 500.242L799.5 501ZM513.5 747L513.5 748L513.871 748L514.152 747.758L513.5 747ZM0.999989 746L-1.07391e-05 746L-1.07669e-05 748L0.999989 748L0.999989 746ZM1085 500L799.5 500L799.5 502L1085 502L1085 500ZM798.848 500.242L512.848 746.242L514.152 747.758L800.152 501.758L798.848 500.242ZM513.5 746L0.999989 746L0.999989 748L513.5 748L513.5 746Z" fill="#2FB2FF"/>
</g>
<g style="mix-blend-mode:multiply" opacity="0.3">
<path d="M1442.5 150.5C1443.05 150.5 1443.5 150.052 1443.5 149.5C1443.5 148.948 1443.05 148.5 1442.5 148.5V150.5ZM1151.5 149.5V148.5H1150.5V149.5H1151.5ZM1151.5 401H1150.5V401.449L1150.84 401.748L1151.5 401ZM1241 480.5H1242V480.051L1241.66 479.752L1241 480.5ZM1240 753.5V754.5H1242V753.5H1240ZM1442.5 148.5H1151.5V150.5H1442.5V148.5ZM1150.5 149.5V401H1152.5V149.5H1150.5ZM1150.84 401.748L1240.34 481.248L1241.66 479.752L1152.16 400.252L1150.84 401.748ZM1240 480.5V753.5H1242V480.5H1240Z" fill="#2FB2FF"/>
</g>
<rect x="101" y="334" width="8" height="8" fill="#FF003C"/>
<rect x="821" y="244" width="8" height="8" fill="#FF003C"/>
<rect x="241" y="714" width="8" height="8" fill="#FF003C"/>
<rect x="61" y="588" width="8" height="8" fill="#FF003C"/>
<rect x="743" y="21" width="8" height="8" fill="#FF003C"/>
<rect x="24" y="92" width="8" height="8" fill="#FF003C"/>
<rect x="1424" y="130" width="18" height="20.25" fill="#FF003C"/>
<rect x="1088" y="287" width="18" height="20.25" fill="#FF003C"/>
</svg>
